{
  "title": "Terminator Genisys {2015} HQCAM XVID MP3-MRG",
  "uid": 12084459,
  "size": 2006206258,
  "categoryP": "video",
  "categoryS": "movies",
  "magnet": "?xt=urn:btih:bbd33eedd5ff469bd4532110436b991fbd68f714&amp;dn=Terminator+Genisys+%7B2015%7D+HQCAM+XVID+MP3-MRG&amp;tr=udp%3A%2F%2Ftracker.openbittorrent.com%3A80&amp;tr=udp%3A%2F%2Fopen.demonii.com%3A1337&amp;tr=udp%3A%2F%2Ftracker.coppersurfer.tk%3A6969&amp;tr=udp%3A%2F%2Fexodus.desync.com%3A6969",
  "seeders": 288,
  "leechers": 68,
  "uploader": "SaM",
  "files": 15,
  "time": 1435858196,
  "description": "Terminator Genisys {2015} HQCAM XVID MP3-MRG\n\nFormat                      : AVI\nFormat/Info                 : Audio Video Interleave\nFile size                   : 1.87 GiB\nDuration                    : 1h 56mn\nOverall bit rate            : 2 287 Kbps\n\nVideo\nID                          : 0\nFormat                      : MPEG-4 Visual\nFormat profile              : Advanced Simple@L5\nFormat settings, BVOP       : 2\nFormat settings, QPel       : No\nFormat settings, GMC        : No warppoints\nFormat settings, Matrix     : Default (H.263)\nMuxing mode                 : Packed bitstream\nCodec ID                    : XVID\nCodec ID/Hint               : XviD\nDuration                    : 1h 56mn\nBit rate                    : 1 956 Kbps\nWidth                       : 720 pixels\nHeight                      : 324 pixels\nDisplay aspect ratio        : 2.222\nFrame rate                  : 29.970 fps\nColor space                 : YUV\nChroma subsampling          : 4:2:0\nBit depth                   : 8 bits\nScan type                   : Progressive\nCompression mode            : Lossy\nBits/(Pixel*Frame)          : 0.280\nStream size                 : 1.60 GiB (86%)\nWriting library             : XviD 73\n\nAudio\nID                          : 1\nFormat                      : MPEG Audio\nFormat version              : Version 1\nFormat profile              : Layer 3\nMode                        : Joint stereo\nMode extension              : MS Stereo\nCodec ID                    : 55\nCodec ID/Hint               : MP3\nDuration                    : 1h 55mn\nBit rate mode               : Constant\nBit rate                    : 320 Kbps\nChannel(s)                  : 2 channels\nSampling rate               : 48.0 KHz\nCompression mode            : Lossy\nStream size                 : 265 MiB (14%)\nAlignment                   : Aligned on interleaves\nInterleave, duration        : 24 ms (0.73 video frame)\nInterleave, preload duratio : 1260 ms\nWriting library             : LAME3.99.5\n &lt;a href=&quot;\nhttp://extraimago.com/image/7Us&quot; rel=&quot;nofollow&quot; target=&quot;_NEW&quot;&gt;\nhttp://extraimago.com/image/7Us&lt;/a&gt; &lt;a href=&quot;\nhttp://extraimago.com/image/7Un&quot; rel=&quot;nofollow&quot; target=&quot;_NEW&quot;&gt;\nhttp://extraimago.com/image/7Un&lt;/a&gt; &lt;a href=&quot;\nhttp://extraimago.com/image/7Uj&quot; rel=&quot;nofollow&quot; target=&quot;_NEW&quot;&gt;\nhttp://extraimago.com/image/7Uj&lt;/a&gt; &lt;a href=&quot;\nhttp://extraimago.com/image/7UT&quot; rel=&quot;nofollow&quot; target=&quot;_NEW&quot;&gt;\nhttp://extraimago.com/image/7UT&lt;/a&gt; &lt;a href=&quot;\nhttp://extraimago.com/image/7UN&quot; rel=&quot;nofollow&quot; target=&quot;_NEW&quot;&gt;\nhttp://extraimago.com/image/7UN&lt;/a&gt; &lt;a href=&quot;\nhttp://extraimago.com/image/7U2&quot; rel=&quot;nofollow&quot; target=&quot;_NEW&quot;&gt;\nhttp://extraimago.com/image/7U2&lt;/a&gt; &lt;a href=&quot;\nhttp://extraimago.com/image/7Uw&quot; rel=&quot;nofollow&quot; target=&quot;_NEW&quot;&gt;\nhttp://extraimago.com/image/7Uw&lt;/a&gt; &lt;a href=&quot;\nhttp://extraimago.com/image/7Ua&quot; rel=&quot;nofollow&quot; target=&quot;_NEW&quot;&gt;\nhttp://extraimago.com/image/7Ua&lt;/a&gt; &lt;a href=&quot;\nhttp://extraimago.com/image/7U8&quot; rel=&quot;nofollow&quot; target=&quot;_NEW&quot;&gt;\nhttp://extraimago.com/image/7U8&lt;/a&gt; &lt;a href=&quot;\nhttp://extraimago.com/image/7Mf&quot; rel=&quot;nofollow&quot; target=&quot;_NEW&quot;&gt;\nhttp://extraimago.com/image/7Mf&lt;/a&gt;",
  "parsed": {
    "xt": "urn:btih:bbd33eedd5ff469bd4532110436b991fbd68f714",
    "dn": "Terminator Genisys {2015} HQCAM XVID MP3-MRG",
    "tr": [
      "udp://exodus.desync.com:6969",
      "udp://open.demonii.com:1337",
      "udp://tracker.coppersurfer.tk:6969",
      "udp://tracker.openbittorrent.com:80"
    ],
    "infoHash": "bbd33eedd5ff469bd4532110436b991fbd68f714",
    "infoHashBuffer": {
      "type": "Buffer",
      "data": [
        187,
        211,
        62,
        237,
        213,
        255,
        70,
        155,
        212,
        83,
        33,
        16,
        67,
        107,
        153,
        31,
        189,
        104,
        247,
        20
      ]
    },
    "name": "Terminator Genisys {2015} HQCAM XVID MP3-MRG",
    "announce": [
      "udp://exodus.desync.com:6969",
      "udp://open.demonii.com:1337",
      "udp://tracker.coppersurfer.tk:6969",
      "udp://tracker.openbittorrent.com:80"
    ],
    "urlList": []
  },
  "previous": 356,
  "peers": 13,
  "last_updated": "2016-12-25T12:24:01.038Z"
}